<?xml version="1.0" encoding="UTF-8" standalone="no"?>
<svg
   xmlns:dc="http://purl.org/dc/elements/1.1/"
   xmlns:cc="http://creativecommons.org/ns#"
   xmlns:rdf="http://www.w3.org/1999/02/22-rdf-syntax-ns#"
   xmlns:svg="http://www.w3.org/2000/svg"
   xmlns="http://www.w3.org/2000/svg"
   id="svg"
   version="1.1"
   style="display: block;"
   viewBox="0 0 912 350">
  <metadata
     id="metadata29">
    <rdf:RDF>
      <cc:Work
         rdf:about="">
        <dc:format>image/svg+xml</dc:format>
        <dc:type
           rdf:resource="http://purl.org/dc/dcmitype/StillImage" />
        <dc:title></dc:title>
      </cc:Work>
    </rdf:RDF>
  </metadata>
  <defs
     id="defs27" />
  <path
     d="M0 0 C300.96 0 601.92 0 912 0 C912 115.5 912 231 912 350 C611.04 350 310.08 350 0 350 C0 234.5 0 119 0 0 Z "
     transform="translate(0,0)"
     style="fill:#000000;fill-opacity:0"
     id="path2" />
  <path
     d="M0 0 C0.49532227 0.42684082 0.99064453 0.85368164 1.50097656 1.29345703 C8.79097871 7.62303033 15.18432497 14.25284166 21 22 C21.72703125 22.96164063 22.4540625 23.92328125 23.203125 24.9140625 C46.49317752 57.08039377 55.97747499 97.0318006 50.15869141 136.27880859 C45.51223124 164.41315768 33.6095068 189.46484951 15 211 C14.57315918 211.49532227 14.14631836 211.99064453 13.70654297 212.50097656 C7.37696967 219.79097871 0.74715834 226.18432497 -7 232 C-7.96164062 232.72703125 -8.92328125 233.4540625 -9.9140625 234.203125 C-42.08039377 257.49317752 -82.0318006 266.97747499 -121.27880859 261.15869141 C-149.41315768 256.51223124 -174.46484951 244.6095068 -196 226 C-196.49532227 225.57315918 -196.99064453 225.14631836 -197.50097656 224.70654297 C-204.79097871 218.37696967 -211.18432497 211.74715834 -217 204 C-218.09054688 202.55753906 -218.09054688 202.55753906 -219.203125 201.0859375 C-242.49317752 168.91960623 -251.97747499 128.9681994 -246.15869141 89.72119141 C-241.51223124 61.58684232 -229.6095068 36.53515049 -211 15 C-210.57315918 14.50467773 -210.14631836 14.00935547 -209.70654297 13.49902344 C-203.37696967 6.20902129 -196.74715834 -0.18432497 -189 -6 C-187.55753906 -7.09054688 -187.55753906 -7.09054688 -186.0859375 -8.203125 C-129.71998626 -49.01492767 -52.42042038 -45.29887868 0 0 Z "
     transform="translate(273,61)"
     style="fill:#000000;fill-opacity:0"
     id="path4" />
  <path
     d="M0 0 C0.7897522 0.00021149 1.57950439 0.00042297 2.39318848 0.00064087 C15.45544502 0.03544936 27.88454224 1.02011629 40.5625 4.375 C41.28195801 4.56223633 42.00141602 4.74947266 42.74267578 4.94238281 C47.43335179 6.20236955 52.00291686 7.70537442 56.5625 9.375 C57.23023438 9.61557129 57.89796875 9.85614258 58.5859375 10.10400391 C99.75642829 25.2030872 132.26171506 57.03871069 150.59423828 96.6015625 C159.84383496 117.63731024 163.9809037 139.86057618 163.9375 162.75 C163.93967529 163.92423523 163.93967529 163.92423523 163.94189453 165.12219238 C163.93915381 178.56202809 162.46833164 191.24149494 159.5625 204.375 C160.70501221 204.95878418 161.84752441 205.54256836 163.0246582 206.14404297 C167.36232386 208.36082861 171.69920911 210.57913754 176.03588867 212.79785156 C177.89440807 213.74844692 179.75312445 214.69865729 181.61206055 215.6484375 C192.86814849 221.39985672 204.09068187 227.20836775 215.26831055 233.11083984 C221.09973092 236.18944359 226.95499109 239.22135004 232.8125 242.25 C244.13706987 248.11399483 255.44832087 254.00299157 266.75195312 259.90722656 C271.52135182 262.3979862 276.29199605 264.8863581 281.0625 267.375 C282.94922456 268.35936386 284.83594329 269.34373889 286.72265625 270.328125 C287.6677002 270.82119141 288.61274414 271.31425781 289.58642578 271.82226562 C298.24511719 276.33984375 306.90380859 280.85742187 315.5625 285.375 C314.14606115 290.0327075 312.22212561 294.26540436 309.97265625 298.56640625 C309.62746445 299.23413559 309.28227264 299.90186493 308.92662048 300.58982849 C308.19994506 301.99347872 307.47119582 303.39605708 306.74047852 304.79760742 C305.62768047 306.93235789 304.52131237 309.07034199 303.41601562 311.20898438 C302.70610275 312.57831875 301.9958284 313.94746579 301.28515625 315.31640625 C300.95693375 315.94986465 300.62871124 316.58332306 300.2905426 317.23597717 C298.48897848 320.68746387 296.60346111 324.05937198 294.5625 327.375 C289.41531475 325.84177425 284.85818395 323.61911611 280.11328125 321.15625 C279.30118698 320.73887573 278.48909271 320.32150146 277.65238953 319.89147949 C275.0578498 318.55664053 272.466448 317.21582946 269.875 315.875 C268.18443659 315.00483561 266.49368286 314.13504086 264.80273438 313.265625 C255.58581014 308.52049688 246.39756322 303.72258731 237.22816467 298.88632202 C230.60531147 295.39352158 223.96350993 291.93893304 217.3125 288.5 C205.99955881 282.64202664 194.70008269 276.75880018 183.40820312 270.86035156 C180.45539673 269.31909606 177.50129287 267.78035154 174.546875 266.2421875 C172.55203888 265.20321035 170.55724662 264.16414897 168.5625 263.125 C167.12970703 262.37875366 167.12970703 262.37875366 165.66796875 261.61743164 C158.85869628 258.06541112 152.08162079 254.45766294 145.328125 250.80078125 C142.58601668 249.2974844 142.58601668 249.2974844 139.5625 248.375 C139.32273437 249.0659375 139.08296875 249.756875 138.8359375 250.46875 C137.33084549 253.90368391 135.36710002 256.84570383 133.1875 259.875 C132.74905762 260.48448486 132.31061523 261.09396973 131.85888672 261.72192383 C126.93380806 268.42276408 121.42129464 274.48409721 115.5625 280.375 C115.08586914 280.85565918 114.60923828 281.33631836 114.11816406 281.83154297 C84.29254497 311.48316223 42.77682639 326.85322837 1.125 326.75 C0.3352478 326.74978851 -0.45450439 326.74957703 -1.26818848 326.74935913 C-14.33044502 326.71455064 -26.75954224 325.72988371 -39.4375 322.375 C-40.15695801 322.18776367 -40.87641602 322.00052734 -41.61767578 321.80761719 C-46.30835179 320.54763045 -50.87791686 319.04462558 -55.4375 317.375 C-56.10523437 317.13442871 -56.77296875 316.89385742 -57.4609375 316.64599609 C-98.63142829 301.5469128 -131.13671506 269.71128931 -149.46923828 230.1484375 C-158.72631959 209.09566796 -162.86927716 186.84663509 -162.8125 163.9375 C-162.81228851 163.1477478 -162.81207703 162.35799561 -162.81185913 161.54431152 C-162.77705064 148.48205498 -161.79238371 136.05295776 -158.4375 123.375 C-158.25026367 122.65554199 -158.06302734 121.93608398 -157.87011719 121.19482422 C-156.61013045 116.50414821 -155.10712558 111.93458314 -153.4375 107.375 C-153.19692871 106.70726563 -152.95635742 106.03953125 -152.70849609 105.3515625 C-137.6094128 64.18107171 -105.77378931 31.67578494 -66.2109375 13.34326172 C-45.15816796 4.08618041 -22.90913509 -0.05677716 0 0 Z M-91.4375 45.375 C-92.27788818 46.05949219 -92.27788818 46.05949219 -93.13525391 46.7578125 C-118.65910284 67.58338 -135.51290025 93.6679368 -144.4375 125.375 C-144.77394531 126.56996094 -145.11039063 127.76492187 -145.45703125 128.99609375 C-154.77235577 167.22104607 -147.48568257 208.43547374 -127.33203125 241.9765625 C-122.88507212 248.84671492 -117.78396924 255.18799994 -112.4375 261.375 C-112.01065918 261.87032227 -111.58381836 262.36564453 -111.14404297 262.87597656 C-104.81446967 270.16597871 -98.18465834 276.55932497 -90.4375 282.375 C-89.47585937 283.10203125 -88.51421875 283.8290625 -87.5234375 284.578125 C-55.35710623 307.86817752 -15.4056994 317.35247499 23.84130859 311.53369141 C51.97565768 306.88723124 77.02734951 294.9845068 98.5625 276.375 C99.05782227 275.94815918 99.55314453 275.52131836 100.06347656 275.08154297 C107.35347871 268.75196967 113.74682497 262.12215834 119.5625 254.375 C120.28953125 253.41335938 121.0165625 252.45171875 121.765625 251.4609375 C145.05567752 219.29460623 154.53997499 179.3431994 148.72119141 140.09619141 C144.07473124 111.96184232 132.1720068 86.91015049 113.5625 65.375 C113.13565918 64.87967773 112.70881836 64.38435547 112.26904297 63.87402344 C105.93946967 56.58402129 99.30965834 50.19067503 91.5625 44.375 C90.60085938 43.64796875 89.63921875 42.9209375 88.6484375 42.171875 C36.16513799 4.17130877 -40.76756282 3.25262307 -91.4375 45.375 Z "
     transform="translate(174.4375,10.625)"
     style="fill: #427EAE;"
     id="path6" />
  <g
     id="flowRoot823"
     style="font-style:normal;font-weight:normal;font-size:40px;line-height:1.25;font-family:sans-serif;letter-spacing:0px;word-spacing:0px;fill:#427eae;fill-opacity:1;stroke:none"
     transform="translate(110.73171,-392.43902)"
     aria-label="RTG">
    <path
       id="path917"
       style="font-style:normal;font-variant:normal;font-weight:normal;font-stretch:normal;font-size:220px;font-family:'Good Times';-inkscape-font-specification:'Good Times'"
       d="m 456.83891,592.20773 -48.18,-48.62 c 20.68,-7.92 33,-26.62 33,-53.02 0,-35.64 -21.56,-58.3 -58.08,-58.3 h -114.84 v 159.94 h 27.72 v -132 h 87.12 c 19.14,0 30.58,10.12 30.58,30.8 0,20.68 -10.56,32.12 -30.58,32.12 h -66.66 v 24.64 h 59.84 l 40.48,44.44 z" />
    <path
       id="path919"
       style="font-style:normal;font-variant:normal;font-weight:normal;font-stretch:normal;font-size:220px;font-family:'Good Times';-inkscape-font-specification:'Good Times'"
       d="m 547.03864,592.20773 v -132 h 60.72 v -27.94 h -149.38 v 27.94 h 60.72 v 132 z" />
    <path
       id="path921"
       style="font-style:normal;font-variant:normal;font-weight:normal;font-stretch:normal;font-size:220px;font-family:'Good Times';-inkscape-font-specification:'Good Times'"
       d="m 792.11843,592.20773 v -93.06 h -100.32 v 23.54 h 72.16 v 41.58 h -68.42 c -28.82,0 -49.72,-22.22 -49.72,-52.36 0,-30.36 21.12,-51.7 49.72,-51.7 h 86.68 v -27.94 h -86.68 c -44.66,0 -77.66,31.24 -77.66,78.32 0,46.42 33,81.62 77.66,81.62 z" />
  </g>
  <g
     id="flowRoot831"
     style="font-style:normal;font-weight:normal;font-size:40px;line-height:1.25;font-family:sans-serif;letter-spacing:0px;word-spacing:0px;fill:#bb7f52;fill-opacity:1;stroke:none"
     transform="translate(-13.121951,-335.85366)"
     aria-label="{   }">
    <path
       id="path912"
       style="font-style:normal;font-variant:normal;font-weight:normal;font-stretch:normal;font-size:160px;font-family:'Good Times';-inkscape-font-specification:'Good Times';fill:#bb7f52;fill-opacity:1"
       d="m 106.70344,582.51945 v -11.2 c -7.680003,0 -12.320003,-1.76 -12.320003,-10.24 v -38.4 c 0,-7.04 -1.119999,-10.88 -6.239999,-12.96 4.639999,-1.76 6.239999,-5.92 6.239999,-13.12 v -38.72 c 0,-5.76 2.880001,-10.56 12.320003,-10.56 v -11.2 h -7.360003 c -11.04,0 -18.24,7.04 -18.24,19.04 v 44.96 c 0,2.56 -1.92,3.84 -8.159999,4 v 11.04 c 6.239999,0.16 8.159999,1.44 8.159999,4.16 v 44.48 c 0,11.84 7.2,18.72 18.24,18.72 z" />
    <path
       id="path914"
       style="font-style:normal;font-variant:normal;font-weight:normal;font-stretch:normal;font-size:160px;font-family:'Good Times';-inkscape-font-specification:'Good Times';fill:#bb7f52;fill-opacity:1"
       d="m 275.34281,582.51945 c 11.04,0 18.24,-6.88 18.24,-18.72 v -44.48 c 0,-2.72 1.92,-4 8.16,-4.16 v -11.04 c -6.24,-0.16 -8.16,-1.44 -8.16,-4 v -44.96 c 0,-12 -7.2,-19.04 -18.24,-19.04 h -7.36 v 11.2 c 9.44,0 12.32,4.8 12.32,10.56 v 38.72 c 0,7.2 1.6,11.36 6.24,13.12 -5.12,2.08 -6.24,5.92 -6.24,12.96 v 38.4 c 0,8.48 -4.64,10.24 -12.32,10.24 v 11.2 z" />
  </g>
  <g
     id="flowRoot839"
     style="font-style:normal;font-weight:normal;font-size:40px;line-height:1.25;font-family:sans-serif;letter-spacing:0px;word-spacing:0px;fill:#bb7f52;fill-opacity:1;stroke:none"
     transform="translate(51.95122,-439.02439)"
     aria-label="...">
    <path
       id="path905"
       style="font-style:normal;font-variant:normal;font-weight:normal;font-stretch:normal;font-size:213.33332825px;font-family:'Good Times';-inkscape-font-specification:'Good Times';fill:#bb7f52;fill-opacity:1"
       d="m 84.160364,614.02703 c 0,-8.10667 -6.4,-14.50667 -14.72,-14.50667 -8.106667,0 -14.293333,6.4 -14.293333,14.50667 0,8.10666 6.186666,14.50666 14.293333,14.50666 8.32,0 14.72,-6.4 14.72,-14.50666 z" />
    <path
       id="path907"
       style="font-style:normal;font-variant:normal;font-weight:normal;font-stretch:normal;font-size:213.33332825px;font-family:'Good Times';-inkscape-font-specification:'Good Times';fill:#bb7f52;fill-opacity:1"
       d="m 140.05351,614.02703 c 0,-8.10667 -6.4,-14.50667 -14.72,-14.50667 -8.10667,0 -14.29333,6.4 -14.29333,14.50667 0,8.10666 6.18666,14.50666 14.29333,14.50666 8.32,0 14.72,-6.4 14.72,-14.50666 z" />
    <path
       id="path909"
       style="font-style:normal;font-variant:normal;font-weight:normal;font-stretch:normal;font-size:213.33332825px;font-family:'Good Times';-inkscape-font-specification:'Good Times';fill:#bb7f52;fill-opacity:1"
       d="m 195.94666,614.02703 c 0,-8.10667 -6.4,-14.50667 -14.72,-14.50667 -8.10667,0 -14.29334,6.4 -14.29334,14.50667 0,8.10666 6.18667,14.50666 14.29334,14.50666 8.32,0 14.72,-6.4 14.72,-14.50666 z" />
  </g>
</svg>
